<?xml version="1.0" encoding="UTF-8" standalone="no"?>
<svg
   xmlns:dc="http://purl.org/dc/elements/1.1/"
   xmlns:cc="http://creativecommons.org/ns#"
   xmlns:rdf="http://www.w3.org/1999/02/22-rdf-syntax-ns#"
   xmlns:svg="http://www.w3.org/2000/svg"
   xmlns="http://www.w3.org/2000/svg"
   xmlns:xlink="http://www.w3.org/1999/xlink"
   id="svg4012"
   version="1.1"
   viewBox="0 0 132.29166 132.29167"
   height="500"
   width="500">
  <defs
     id="defs4006">
    <linearGradient
       gradientTransform="matrix(0.31084305,0,0,0.31084305,-2453.3717,-57.44957)"
       gradientUnits="userSpaceOnUse"
       y2="-888.64587"
       x2="8188.2964"
       y1="-183.30688"
       x1="7868.7729"
       id="linearGradient5075"
       xlink:href="#linearGradient5073" />
    <linearGradient
       id="linearGradient5073">
      <stop
         id="stop5069"
         offset="0"
         style="stop-color:#0f62ff;stop-opacity:1" />
      <stop
         id="stop5071"
         offset="1"
         style="stop-color:#60c8ff;stop-opacity:1" />
    </linearGradient>
  </defs>
  <metadata
     id="metadata4009">
    <rdf:RDF>
      <cc:Work
         rdf:about="">
        <dc:format>image/svg+xml</dc:format>
        <dc:type
           rdf:resource="http://purl.org/dc/dcmitype/StillImage" />
        <dc:title></dc:title>
      </cc:Work>
    </rdf:RDF>
  </metadata>
  <g
     transform="translate(0,-164.70832)"
     id="layer1">
    <rect
       transform="scale(1,-1)"
       y="-297"
       x="0"
       height="132.29167"
       width="132.29167"
       id="rect5053"
       style="opacity:1;fill:url(#linearGradient5075);fill-opacity:1;stroke:none;stroke-width:1.72866893;stroke-linecap:square;stroke-linejoin:round;stroke-miterlimit:4;stroke-dasharray:none;stroke-opacity:1;paint-order:stroke fill markers" />
    <g
       id="g5223"
       transform="matrix(0.61114387,0,0,0.61114387,-4417.1756,285.82775)">
      <path
         style="fill:#ffffff;fill-rule:evenodd;stroke:none;stroke-width:1px;stroke-linecap:butt;stroke-linejoin:miter;stroke-opacity:1"
         d="m 7311.8081,-164.19501 c -17.0446,15.82504 -40.1338,24.09832 -55.6391,41.81849 -8.7461,9.8479 -14.8827,23.31107 -12.4638,36.68993 -1.5352,5.41407 -3.6815,11.01325 -3.4547,16.662298 2.3759,4.095854 8.0391,5.106729 12.1543,3.247291 5.7791,8.014161 14.4256,13.716926 23.9357,16.270249 1.0765,0.456893 3.6862,1.511822 3.6676,-0.51696 -1.2409,-2.107401 -3.5216,-3.527232 -4.6454,-5.791327 -1.6424,-2.631079 -3.0603,-6.130149 -2.8248,-8.976219 2.1992,0.848995 4.4696,1.756357 6.8766,1.61732 -0.6207,-1.409163 0.3669,-2.391146 1.7454,-2.246376 1.6503,-0.09723 3.3763,-0.808593 4.1428,-2.36611 3.8615,2.685944 8.7325,3.41211 13.3425,3.212718 0.081,5.88197 0.2775,12.189981 3.1782,17.442286 0.979,1.011738 2.6511,0.874912 3.6984,0.04638 1.5094,6.918355 6.5023,12.375657 12.1282,16.362105 2.9677,2.192353 6.7371,4.830569 10.5523,3.880561 2.4619,-1.476152 1.1466,-5.133773 -0.9926,-6.246675 8.0626,3.254665 17.7281,1.758213 24.3644,-3.882244 2.4521,-2.019832 4.5266,-4.487447 6.143,-7.219767 2.2628,3.868977 3.9508,8.173208 5.9178,12.248809 1.7078,-8.125592 6.7884,-15.234641 9.5893,-22.765621 7.2597,4.71571 17.728,6.141007 24.9361,0.607128 2.4251,-2.453277 1.0738,-7.288892 -2.5129,-7.656558 -1.6273,-0.767255 -4.0079,-2.117478 -4.6335,-3.424371 2.466,-0.183324 4.6279,0.907663 6.9465,1.352545 2.0144,0.145391 3.5668,-1.306794 5.5274,-1.463851 3.6049,-1.022743 6.6483,-4.428722 6.2459,-8.298265 0.42,-1.151879 2.4518,-1.118355 2.0962,0.389577 0.4744,3.987393 3.5324,7.659404 7.7189,7.898792 3.2557,0.424673 6.4771,0.880845 9.6248,1.628058 1.8373,0.270254 3.9929,-1.518928 2.8956,-3.416781 -3.0835,-7.694232 -5.3989,-15.947152 -7.5764,-23.835682 0.6246,-1.44058 3.2477,-3.06943 2.0237,-4.74994 -1.2099,-0.59235 -2.4225,0.52591 -3.4075,1.12234 -1.8987,-4.47327 -2.9501,-9.72583 -6.4507,-13.26828 -3.423,-2.16542 -7.6954,-0.19165 -11.2159,-2.05411 -1.7872,-0.50971 -2.559,1.49401 -2.5902,2.90913 -0.8448,2.70167 -1.6699,5.45385 -2.5914,8.10519 -0.2324,-4.09461 -1.9701,-9.04332 -6.4887,-9.95016 -4.9372,-1.60205 -11.4732,0.72087 -12.6924,6.17415 -0.3628,0.92803 -0.405,3.24627 -1.0388,3.36282 -1.1372,-3.10033 -1.993,-6.75669 -5.245,-8.36319 -3.2524,-2.01297 -7.2558,-0.98773 -10.7284,-2.15446 -1.4981,-0.21654 -2.9788,0.47344 -4.0602,1.36519 -3.3538,-0.33405 -7.1329,-1.8723 -10.1491,0.48739 -1.862,1.13799 -2.7009,3.42039 -3.5947,5.15637 -0.7807,-4.09106 -4.9548,-6.99127 -9.0751,-6.22381 -3.41,0.36208 -6.7627,0.89162 -10.1836,0.24866 -1.6849,0.34267 0.3424,-1.67785 0.4369,-2.58367 2.2563,-5.37527 3.4505,-11.88882 1.0709,-17.36133 -2.3439,-2.50304 -6.0996,-0.0915 -7.122,2.52295 -4.965,6.10466 -13.3526,7.44606 -20.7739,7.52924 -1.3441,0.1718 -3.5427,1.08912 -1.6142,-0.83216 8.2739,-12.21435 13.714,-26.67433 14.1994,-41.49478 -0.4135,-1.41088 1.2393,-6.41797 -1.3938,-3.21527 z m -0.6214,70.05922 c 1.1637,0.6627 -1.3876,0.0512 0,0 z"
         id="path5187" />
      <path
         id="path5189"
         d="m 7309.5934,-157.47124 c 0,0 -11.4103,9.3967 -30.7168,20.84146 -4.2763,2.53504 -45.5809,28.63576 -27.957,62.087096 6.4818,12.303057 14.0901,18.066325 21.3643,20.173994 -4.1224,-5.581323 -4.8828,-13.734291 -0.5599,-19.567263 1.8268,-2.899381 4.547,-4.929237 7.613,-6.076437 l -8.3752,-6.87508 c 0,0 12.7801,-2.46899 21.9298,-5.51889 9.1497,-3.0499 19.7516,-3.19535 27.8847,-14.08785 8.1331,-10.89251 5.0744,-19.645 5.0744,-19.645 0,0 -0.3604,2.40951 -7.18,7.08219 -7.8426,5.37364 -12.8144,2.49806 -21.5034,5.13566 -8.7652,2.66069 -10.6656,4.66801 -10.6656,4.66801 0,0 9.6264,-11.08057 12.49,-15.97606 2.3985,-4.10027 3.3637,-6.31554 6.8259,-15.54 3.7533,-10.00016 3.7758,-16.70183 3.7758,-16.70183 z"
         style="fill:#2b1100;fill-rule:evenodd;stroke:none;stroke-width:1px;stroke-linecap:butt;stroke-linejoin:miter;stroke-opacity:1" />
      <path
         id="path5191"
         d="m 7410.6959,-123.48033 c -5.0987,1.30725 -10.643,-0.16827 -15.625,1.25976 -3.5411,-2.94139 -7.5812,0.9201 -8.0626,4.61719 -1.9169,-3.51156 -6.6238,-2.32968 -9.498,-1.58594 -2.6988,-0.75701 -4.1179,-0.76778 -5.5644,-3.29883 -2.8673,-2.20801 -6.656,0.0325 -7.6602,2.51953 -3.9748,0.69727 -8.3552,-0.44402 -12.1387,0.85352 -4.24,-1.36606 -8.9803,-0.52168 -13.4092,-0.3826 -1.9696,1.15528 -4.3758,-1.43397 -6.6474,-0.42013 -8.3007,-0.22181 -8.969,16.99094 0.3613,14.91406 19.7695,-0.0416 39.6054,0.25725 59.3399,-0.18164 6.9107,-0.96406 15.6629,3.05911 21.5644,-2.17969 2.402,-2.54126 0.9217,-6.33149 3.9473,-8.32422 2.1304,-4.20344 -2.6162,-8.13486 -6.6074,-7.79101 z m -3.7579,9.7539 c 5.8022,6.18185 -7.3837,2.98007 0,0 z"
         style="font-style:normal;font-weight:normal;font-size:12.8004961px;line-height:125%;font-family:sans-serif;letter-spacing:0px;word-spacing:0px;opacity:1;fill:#ffffff;fill-opacity:1;stroke:none;stroke-width:3.34406257;stroke-linecap:square;stroke-linejoin:round;stroke-miterlimit:4;stroke-dasharray:none;stroke-opacity:1;paint-order:stroke fill markers" />
      <text
         xml:space="preserve"
         style="font-style:normal;font-weight:normal;font-size:12.8004961px;line-height:125%;font-family:sans-serif;letter-spacing:0px;word-spacing:0px;opacity:1;fill:#ffffff;fill-opacity:1;stroke:#000000;stroke-width:3.34406257;stroke-linecap:square;stroke-linejoin:round;stroke-miterlimit:4;stroke-dasharray:none;stroke-opacity:1;paint-order:stroke fill markers"
         x="7329.7344"
         y="-109.11716"
         id="text5201"><tspan
           id="tspan5199"
           x="7329.7344"
           y="-109.11716"
           style="font-style:italic;font-variant:normal;font-weight:bold;font-stretch:normal;font-family:Nobile;-inkscape-font-specification:'Nobile Bold Italic';fill:#ffffff;stroke:#000000;stroke-width:3.34406257;stroke-linecap:square;stroke-linejoin:round;stroke-miterlimit:4;stroke-dasharray:none;paint-order:stroke fill markers"><tspan
   id="tspan5193"
   style="fill:#ff6600;stroke-width:3.34406257;stroke-miterlimit:4;stroke-dasharray:none">nana</tspan><tspan
   id="tspan5195"
   style="fill:#37abc8;stroke-width:3.34406257;stroke-miterlimit:4;stroke-dasharray:none">nina</tspan><tspan
   id="tspan5197"
   style="fill:#ff0000;stroke-width:3.34406257;stroke-miterlimit:4;stroke-dasharray:none">.</tspan>NET</tspan></text>
      <path
         id="path5203"
         d="m 7302.8359,-149.78906 c -18.5458,13.06145 -42,23.31708 -51.6425,45.35547 -7.1268,16.429475 1.6157,35.679899 15.3736,45.727658 2.0769,0.983895 -0.7017,-5.875869 0.3314,-8.33313 0.8803,-5.743055 4.5656,-10.575578 8.668,-14.490235 -3.0804,-1.175436 -7.3705,-3.239381 -7.8437,-6.757812 15.3192,-3.601703 31.4616,-6.357697 45.6015,-13.654301 6.5346,-4.41326 9.9023,-11.88251 12.041,-19.20507 -6.9411,6.83107 -16.6097,7.83835 -25.7662,8.77063 -5.865,1.05426 -11.0581,4.30954 -16.4662,6.53796 5.2997,-11.57336 16.6398,-19.69312 19.6305,-32.48426 1.9607,-4.79926 3.3339,-9.80408 4.7269,-14.78918 -1.5514,1.10742 -3.1028,2.21485 -4.6543,3.32227 z"
         style="fill:#ff6600;fill-rule:evenodd;stroke:none;stroke-width:1px;stroke-linecap:butt;stroke-linejoin:miter;stroke-opacity:1" />
      <path
         id="path5205"
         d="m 7294.0486,-139.81322 c -17.0221,9.74927 -36.6401,21.87522 -40.6621,42.603521 -1.0204,7.804302 1.5455,16.043231 6.7168,21.914063 4.6394,-3.63103 3.4021,-10.473547 -0.2265,-14.183594 -1.6174,-5.114256 4.4224,-8.692394 8.875,-7.990234 2.5744,-0.673639 5.7419,-1.219523 7.6777,-2.775396 -4.4906,-6.5615 0.7355,-14.10709 5.0519,-19.14665 4.9025,-6.96922 10.1215,-13.77933 14.1297,-21.32014 l -0.8669,0.49847 z"
         style="fill:#ff7f2a;fill-rule:evenodd;stroke:none;stroke-width:1px;stroke-linecap:butt;stroke-linejoin:miter;stroke-opacity:1" />
      <path
         style="font-style:normal;font-weight:normal;font-size:94.95071411px;line-height:125%;font-family:sans-serif;letter-spacing:0px;word-spacing:0px;fill:#000000;fill-opacity:1;stroke:none;stroke-width:1px;stroke-linecap:butt;stroke-linejoin:miter;stroke-opacity:1"
         d="m 7272.7393,-106.31136 c -0.5004,3.69836 0.2603,7.45375 -0.145,11.17538 -0.1608,2.8114 -0.8555,5.55356 -1.6325,8.24851 -4.0871,-5.33127 -4.113,-12.67646 -8.4408,-17.81331 -2.7256,-0.77436 -5.6621,0.0309 -8.3623,-0.90395 -3.4535,11.83658 -8.7021,23.30684 -10.7951,35.343296 2.0671,3.127488 7.7673,3.110162 9.9173,0.102032 1.5831,-2.531775 1.5753,-5.636455 2.0751,-8.487988 1.6251,2.848852 5.7843,-0.0996 7.1886,2.949632 0.2128,3.307664 2.1216,7.449874 5.9187,7.638849 2.8503,-0.711203 5.9268,0.304188 8.208,1.854274 0.096,-1.430323 1.4334,-2.380331 2.7751,-1.822231 2.6401,-0.09035 4.4872,-2.52735 4.7811,-4.999528 5.2501,6.366977 15.071,7.048817 21.7951,2.77002 1.2924,3.219987 5.1594,1.905676 7.8066,1.914138 6.8258,0.117445 13.7948,0.468869 20.5066,-0.329703 3.6952,1.584064 8.8608,0.487654 10.037,-3.823477 1.7993,-3.541181 3.9602,-6.879334 6.1573,-10.182634 0.5889,4.37215 -1.386,9.187272 1.162,13.125776 2.6726,2.53355 7.2837,1.654562 10.0185,-0.420774 1.2802,-0.800615 2.4513,2.116303 4.3266,1.774166 1.9939,0.09842 4.3129,0.343774 6.1379,-0.146726 1.1079,-1.562822 1.0451,-3.609288 1.7379,-5.351159 3.2656,3.931315 8.6422,3.241173 13.0777,2.503561 0.852,3.431655 5.0401,3.088071 7.7856,3.160438 1.3721,-0.165398 2.7634,0.827089 3.6866,1.283403 1.4221,-2.43874 4.9648,-0.414155 6.4558,-2.883859 1.8997,-1.646821 1.1636,-4.368815 2.3037,-6.281248 2.2651,-2.878598 8.1199,-1.577238 8.0048,2.443692 -0.031,3.729263 4.0484,6.221375 7.4854,5.156374 1.951,-0.141061 3.9548,1.273706 5.5552,1.480715 -0.1529,-2.377711 -1.9475,-4.329587 -2.3149,-6.705596 -3.5885,-10.379723 -5.7209,-21.409813 -11.079,-31.018983 -2.7865,-1.09369 -5.922,0.0341 -8.7097,-1.09958 -2.098,6.56677 -3.9615,13.28446 -7.3269,19.34884 -2.9888,-5.3719 -0.9353,-11.7478 -3.2208,-17.25464 -2.2179,-2.48497 -6.1683,-1.66515 -9.0946,-1.31168 -3.3106,2.57771 -1.8315,8.10119 -5.2947,10.45778 -2.2882,0.88606 -4.3032,-1.4176 -4.4556,-3.54916 -1.0396,-3.15507 -3.0449,-7.931 -7.1785,-7.07473 -2.18,0.20187 -4.6359,-0.1992 -6.4263,-1.24209 -0.564,2.00228 -2.9465,2.44949 -4.5981,1.48578 -2.2638,-0.36786 -5.0659,-0.97869 -7.0882,0.12227 -1.8397,2.28359 -2.2522,6.58691 -5.6438,7.16158 -2.202,0.0541 -3.3629,-2.39825 -2.9572,-4.30218 -0.9363,-3.76118 -5.9369,-4.13017 -8.9181,-2.67811 -2.4547,0.68309 -4.6634,-1.06768 -7.1142,-0.49785 -5.2577,0.33745 -10.5576,-0.51585 -15.7838,0.0594 -2.105,0.18012 -2.9238,3.25809 -5.2794,2.48838 -2.343,-0.99429 -4.2833,-2.93387 -6.993,-3.109 -5.6906,-1.10297 -11.7567,1.39009 -15.1622,6.05695 0.2944,-2.98465 -1.8594,-5.75053 -4.9464,-5.71291 -1.8195,0.0118 -3.8319,0.59142 -5.2946,-0.92165 -0.1556,-0.0102 -0.6558,-0.60034 -0.6485,-0.18046 z m 38.5358,9.49397 c 3.6477,0.0303 4.0248,6.31544 0.2892,6.52157 -3.2336,0.5417 -4.7391,-4.30678 -2.0238,-5.92203 0.4909,-0.38194 1.1079,-0.62118 1.7346,-0.59954 z m -25.4033,4.33085 c 3.505,0.69662 2.936,6.96897 -0.758,6.66829 -3.3787,0.12793 -4.7715,-5.36554 -1.361,-6.46086 0.6773,-0.2233 1.4214,-0.2157 2.119,-0.20743 z"
         id="path5207" />
      <path
         id="path5209"
         d="m 7331.0328,-97.02416 c -9.6636,-0.17383 -19.3079,4.83464 -24.2202,13.28262 -6.3435,10.378401 -5.2198,23.302345 -3.1149,34.741218 -0.5724,-4.806836 1.6055,-9.131518 4.9928,-12.389632 -0.3723,1.962557 -0.8014,9.363183 -0.078,13.256475 1.8316,8.731227 9.5875,14.52242 16.9001,18.738335 0.055,-0.133259 0.1108,-0.266432 0.1661,-0.399692 -12.608,-5.396319 -17.9475,-22.96219 -9.5783,-34.254679 8.0061,-12.706781 28.354,-13.427435 37.2389,-1.318814 3.231,4.050142 5.0284,9.209499 5.0156,14.389778 0.025,0.669116 0.016,1.332185 -0.025,1.988345 1.9465,2.547197 3.5902,5.320541 4.8275,8.324402 1.4076,-4.740181 4.6254,-8.658881 6.2104,-13.315499 1.064,-1.857304 1.1484,-7.603653 1.668,-7.09244 3.1673,5.088557 9.6977,6.770875 15.281,7.514898 3.1288,0.537118 10.4553,-1.436984 9.7546,-3.947177 -4.376,-1.489902 -8.5379,-4.270819 -10.0455,-8.862383 1.4641,-2.168958 7.0621,-2.524721 9.9653,-4.319044 9.5261,-3.419221 17.1538,-10.448881 23.1982,-18.378281 -6.8057,3.64966 -14.8505,3.79597 -22.3955,3.4716 -21.2159,-1.92504 -41.6283,-8.74704 -62.7668,-11.20742 -0.9949,-0.13082 -1.9947,-0.20463 -2.9944,-0.22261 z"
         style="fill:#1a1a1a;fill-rule:evenodd;stroke:none;stroke-width:1px;stroke-linecap:butt;stroke-linejoin:miter;stroke-opacity:1" />
      <circle
         style="opacity:1;fill:#00222b;fill-opacity:1;stroke:none;stroke-width:1.40002429;stroke-opacity:0"
         id="circle5211"
         cx="7335.8433"
         cy="-56.420891"
         r="21.861914" />
      <path
         style="opacity:1;fill:#00aad4;fill-opacity:1;stroke:none;stroke-width:1.40002429;stroke-opacity:0"
         d="m 7349.1692,-67.471175 -17.4381,17.438073 -14.0297,-14.029723 c -1.6661,4.296633 -1.7589,9.134031 0.4798,13.342486 4.3741,9.788366 19.0221,13.627665 27.1554,6.093205 6.5466,-5.33092 8.2365,-15.769276 3.8326,-22.844041 z"
         id="path5213" />
      <path
         id="path5215"
         d="m 7296.0236,-102.1677 c -3.143,0 -5.425,0.66953 -6.8462,2.00858 -1.4211,1.33905 -2.3233,3.26539 -2.7059,5.77952 l 2.9522,0.53292 c 0.5193,-3.60723 2.5957,-5.41019 6.2307,-5.41019 4.2362,0 6.3546,1.76268 6.3546,5.28792 0,1.53034 -0.3694,2.67776 -1.1073,3.44293 -0.7652,0.73784 -2.0496,1.35225 -3.8536,1.84415 l -2.8282,0.77915 c -2.897,0.81982 -4.9331,1.81755 -6.1083,2.99263 -1.2026,1.17509 -1.8037,2.99203 -1.8037,5.45151 0,2.432147 0.861,4.440749 2.5828,6.025746 1.6945,1.557667 4.1672,2.3366 7.4196,2.3366 3.225,0 5.5892,-0.669535 7.0925,-2.008585 1.5031,-1.339045 2.4464,-3.265393 2.829,-5.779521 l -2.9522,-0.53292 c -0.5193,3.607225 -2.7461,5.411025 -6.6818,5.411025 -4.4548,0 -6.6826,-1.762669 -6.6826,-5.287915 0,-1.53034 0.4104,-2.66461 1.2303,-3.40245 0.8199,-0.73784 2.1858,-1.36625 4.099,-1.88547 l 2.7059,-0.77915 c 2.8151,-0.76517 4.7969,-1.73491 5.9448,-2.91 1.1479,-1.2024 1.7219,-3.0202 1.7219,-5.45235 0,-2.45947 -0.8207,-4.48122 -2.4606,-6.06622 -1.6398,-1.58499 -4.0172,-2.37791 -7.1329,-2.37791 z m -39.5789,0.57423 -1.9605,5.98612 c 1.5883,-1.58817 3.1769,-3.1761 4.7651,-4.76427 1.1821,1.18203 2.3646,2.36377 3.5467,3.5458 l -1.5549,-4.76765 z m 19.628,0 v 29.922993 h 3.6074 v -29.922993 z m 35.1831,0 v 2.86953 h 12.2985 v 10.4114 h -11.4376 v 2.86953 h 11.4376 v 10.903853 h -13.119 v 2.86868 h 16.7264 v -29.922993 z m 24.603,0 v 29.922993 h 3.9354 l 14.2666,-23.856763 v 23.856763 h 3.6082 v -29.922993 h -3.9362 l -14.2666,23.89725 v -23.89725 z m 30.8683,0 -0.7792,29.922993 h 3.5256 l 0.6147,-25.209313 8.5689,22.668649 h 3.2794 l 7.9535,-22.422419 0.6147,24.963083 h 3.5255 l -0.8196,-29.922993 h -4.879 l -8.0756,22.91403 -8.6094,-22.91403 z m 41.7712,0 -2.3298,7.11521 c 1.6938,-1.69378 3.3874,-3.38754 5.0813,-5.08133 1.3394,1.33929 2.6787,2.67873 4.018,4.01801 l -1.9732,-6.05189 z m -157.0691,15.3165 -4.7828,14.606493 h 3.5668 l 2.9109,-9.017543 h 3.8941 c -0.9565,-0.95648 -1.9131,-1.91304 -2.8696,-2.86952 h -0.082 l 0.02,-0.0616 c -0.8859,-0.88593 -1.7718,-1.77193 -2.6579,-2.65787 z m 15.0113,0.62905 c -1.6533,1.65326 -3.3067,3.30664 -4.96,4.9599 h 3.0399 l 2.9108,9.017543 h 3.5669 z m 136.829,0.0219 -4.5695,13.955512 h 3.5669 l 2.9109,-9.017542 h 3.0289 c -1.6459,-1.64587 -3.2913,-3.2921 -4.9372,-4.93797 z m 15.411,0.55063 c -1.4624,1.46241 -2.925,2.92493 -4.3874,4.38734 h 2.281 l 2.9108,9.017542 h 3.5669 z"
         style="font-style:normal;font-weight:normal;font-size:94.95071411px;line-height:125%;font-family:sans-serif;letter-spacing:0px;word-spacing:0px;fill:#ffffff;fill-opacity:1;stroke:none;stroke-width:1px;stroke-linecap:butt;stroke-linejoin:miter;stroke-opacity:1" />
      <rect
         style="opacity:1;fill:#ff6600;fill-opacity:1;stroke:none;stroke-opacity:1"
         id="rect5217"
         width="7.7285099"
         height="7.7285099"
         x="5299.332"
         y="5174.0293"
         transform="rotate(-45)" />
      <rect
         transform="rotate(-45)"
         y="5065.9741"
         x="5192.4258"
         height="7.7285099"
         width="7.7285099"
         id="rect5219"
         style="opacity:1;fill:#00aad4;fill-opacity:1;stroke:none;stroke-opacity:1" />
      <path
         style="fill:#2ad4ff;fill-rule:evenodd;stroke:none;stroke-width:1px;stroke-linecap:butt;stroke-linejoin:miter;stroke-opacity:1"
         d="m 7333.3299,-49.272013 14.5712,-14.571076 0.3854,4.702831 -7.8637,13.723027 z"
         id="path5221" />
    </g>
  </g>
</svg>
